<?xml version="1.0" encoding="utf-8"?>
<!-- Svg Vector Icons : http://www.onlinewebfonts.com/icon -->
<!DOCTYPE svg PUBLIC "-//W3C//DTD SVG 1.1//EN" "http://www.w3.org/Graphics/SVG/1.1/DTD/svg11.dtd">
<svg version="1.1" xmlns="http://www.w3.org/2000/svg" xmlns:xlink="http://www.w3.org/1999/xlink" x="0px" y="0px" viewBox="0 0 1000 1000" enable-background="new 0 0 1000 1000" xml:space="preserve">
<metadata> Svg Vector Icons : http://www.onlinewebfonts.com/icon </metadata>
<g><g><g><g><polygon points="587.4,790.7 631,808.1 747.8,723 680.5,723 "/><polygon points="558.2,446.3 678.4,533.8 721.9,516.4 625.6,446.3 "/><polygon points="412.5,790.7 319.5,723 252.2,723 369,808.1 "/><polygon points="441.8,446.3 374.4,446.3 278.1,516.5 321.6,533.8 "/><g><path d="M500,35.8c-53.1,0-82.6,27.5-82,80.6c0.8,72.7,31.7,116.8,82,116c0,0,82,3.3,82-116C582,63.3,554.3,35.8,500,35.8z"/><path d="M645.1,287.5l-81.9-32.7l-19.2-16.2c-5.1-4.3-12.6-4-17.2,0.7L500,266l-26.8-26.5c-4.7-4.7-12.2-5-17.2-0.7l-19.2,16.2l-81.9,32.7c-26.4,10.5-26.4,103.9-28.6,112.5h347.4C671.5,391.5,671.4,298.1,645.1,287.5z"/></g><g><path d="M183.7,519.3c0,0,82,3.3,82-116c0-53.1-27.7-80.6-82-80.6c-53.1,0-82.6,27.5-82,80.6C102.5,476,133.4,520.1,183.7,519.3z"/><path d="M328.8,574.4l-81.9-32.7l-19.2-16.2c-5.1-4.3-12.6-4-17.3,0.7l-26.7,26.5L157,526.3c-4.7-4.7-12.2-5-17.2-0.7l-19.2,16.2l-81.9,32.7C12.2,585,12.3,678.4,10,687h347.4C355.2,678.4,355.2,584.9,328.8,574.4z"/><path d="M816.3,519.3c0,0,82,3.3,82-116c0-53.1-27.7-80.6-82-80.6c-53.1,0-82.6,27.5-82,80.6C735.1,476,765.9,520.1,816.3,519.3z"/><path d="M961.3,574.4l-81.9-32.7l-19.2-16.2c-5.1-4.3-12.6-4-17.3,0.7l-26.7,26.5l-26.8-26.5c-4.7-4.7-12.2-5-17.2-0.7l-19.2,16.2l-81.9,32.7C644.8,585,644.8,678.4,642.6,687H990C987.7,678.4,987.7,584.9,961.3,574.4z"/></g><g><path d="M500,599.9c-53.1,0-82.6,27.5-82,80.6c0.8,72.7,31.7,116.8,82,116c0,0,82,3.3,82-116C582,627.5,554.3,599.9,500,599.9z"/><path d="M645.1,851.7l-81.9-32.7l-19.2-16.2c-5.1-4.3-12.6-4-17.2,0.7L500,830.1l-26.8-26.5c-4.7-4.7-12.2-5-17.2-0.7l-19.2,16.2l-81.9,32.7c-26.4,10.5-26.4,103.9-28.6,112.5h347.4C671.5,955.7,671.4,862.2,645.1,851.7z"/></g></g></g></g><g></g><g></g><g></g><g></g><g></g><g></g><g></g><g></g><g></g><g></g><g></g><g></g><g></g><g></g><g></g></g>
</svg>